<?xml version="1.0" standalone="no"?>
<!DOCTYPE svg PUBLIC "-//W3C//DTD SVG 20010904//EN"
 "http://www.w3.org/TR/2001/REC-SVG-20010904/DTD/svg10.dtd">
<svg version="1.0" xmlns="http://www.w3.org/2000/svg"
 width="300.000000pt" height="319.000000pt" viewBox="0 0 300.000000 319.000000"
 preserveAspectRatio="xMidYMid meet">
<metadata>
Created by potrace 1.10, written by Peter Selinger 2001-2011
</metadata>
<g transform="translate(0.000000,319.000000) scale(0.100000,-0.100000)"
fill="#000000" stroke="none">
<path d="M1520 2492 c-29 -14 -39 -29 -62 -89 -16 -40 -34 -107 -41 -150 l-13
-76 -46 -14 c-25 -7 -68 -28 -96 -46 -42 -29 -61 -35 -127 -40 l-77 -6 -56 44
c-65 49 -225 143 -261 152 -45 11 -74 -8 -106 -72 -29 -57 -30 -65 -29 -185 1
-146 21 -252 87 -452 43 -131 43 -134 34 -211 -8 -57 -14 -77 -25 -77 -31 0
-98 -49 -119 -87 -12 -22 -25 -58 -29 -81 l-7 -42 -148 0 c-126 0 -149 -2
-149 -15 0 -13 23 -15 150 -15 l150 0 0 -26 c0 -37 50 -84 90 -84 18 0 45 -9
61 -21 21 -15 42 -20 77 -18 26 1 64 -2 85 -6 42 -8 85 6 113 36 9 10 25 19
34 19 28 0 68 38 75 70 6 29 9 30 60 30 l53 0 -1 -47 c0 -40 4 -50 32 -75 26
-23 40 -28 84 -28 91 1 179 46 226 115 l24 35 591 0 c524 -1 591 1 594 15 3
13 -16 15 -137 15 l-141 0 -14 33 c-7 18 -21 68 -31 110 -16 65 -17 88 -8 164
7 50 8 107 3 131 -9 49 -49 98 -89 107 -19 5 -32 20 -49 55 -13 27 -32 52 -43
55 -11 4 -54 38 -96 75 -73 65 -78 73 -109 159 -38 106 -106 245 -160 327
-111 167 -265 261 -354 216z m129 -48 c130 -65 263 -259 355 -518 25 -70 43
-104 63 -119 15 -12 41 -34 57 -48 l30 -26 -22 -12 c-31 -17 -55 -7 -70 29
-21 47 -69 75 -127 74 -27 0 -66 -4 -85 -8 -35 -8 -35 -8 -47 36 -10 36 -9 47
3 66 11 16 21 21 32 16 27 -11 129 -17 135 -7 6 10 -45 134 -91 218 -98 181
-256 320 -323 285 -25 -14 -39 -71 -39 -161 0 -89 8 -139 23 -139 6 0 21 10
34 22 l23 21 0 -21 c0 -12 6 -22 14 -22 9 0 12 -8 9 -24 -4 -19 6 -32 54 -71
57 -46 73 -65 56 -65 -4 0 -21 9 -38 20 -88 58 -265 -10 -306 -118 -5 -13 -13
-20 -19 -17 -5 3 -27 41 -50 83 -48 93 -70 111 -107 87 -23 -16 -25 -21 -20
-68 3 -29 10 -72 15 -95 9 -42 9 -43 -12 -37 -32 11 -153 18 -180 11 -13 -3
-39 -18 -56 -32 l-31 -27 5 57 c4 45 2 58 -10 63 -11 4 -12 8 -3 19 9 12 8 18
-7 29 -17 13 -16 14 24 15 56 0 54 15 -10 76 -117 109 -194 160 -227 149 -48
-15 -56 -136 -22 -315 29 -147 81 -320 96 -320 7 0 33 22 58 50 l45 50 4 -47
c3 -43 1 -48 -29 -66 -18 -10 -44 -37 -57 -59 l-24 -40 -20 53 c-28 77 -68
211 -89 304 -26 115 -25 324 1 383 22 48 52 62 94 43 58 -26 190 -108 240
-149 l53 -43 60 11 c34 6 73 10 88 8 17 -1 40 8 65 27 21 16 68 39 105 52 l66
22 12 70 c15 93 53 207 75 231 25 27 64 25 127 -6z m14 -84 c30 -22 78 -70
106 -107 59 -78 178 -303 160 -303 -49 0 -169 60 -239 119 -28 24 -33 32 -22
42 19 20 15 49 -8 49 -18 0 -19 3 -9 21 22 42 -23 43 -91 2 -6 -4 -2 137 6
185 7 43 27 42 97 -8z m-894 -237 c20 -15 62 -49 95 -77 l58 -50 -38 -11 c-44
-12 -57 -40 -24 -50 21 -7 21 -8 4 -26 -17 -19 -16 -20 13 -31 l30 -11 -13
-59 c-16 -67 -63 -165 -91 -191 -20 -17 -21 -16 -46 80 -70 263 -86 453 -40
453 9 0 32 -12 52 -27z m506 -175 c15 -35 40 -82 55 -104 l28 -42 -32 -5 c-17
-3 -38 -8 -46 -11 -12 -5 -20 14 -38 101 -26 127 -26 123 -8 123 7 0 26 -28
41 -62z m405 10 c67 -34 92 -84 86 -170 -3 -38 -3 -68 -1 -68 2 0 26 14 53 31
89 55 153 55 207 -1 l29 -30 -26 0 c-33 0 -73 -46 -82 -94 -6 -29 -11 -36 -30
-36 -35 0 -74 -36 -82 -75 -9 -50 9 -138 51 -246 21 -52 40 -120 43 -151 l5
-58 -182 0 c-99 0 -181 2 -181 4 0 20 19 39 55 55 62 27 130 94 162 159 20 42
28 74 31 137 9 177 -56 230 -134 109 -52 -81 -94 -94 -252 -78 -74 8 -85 25
-41 62 41 34 59 78 59 145 0 40 -6 61 -21 81 -11 14 -18 26 -16 26 13 0 89
-36 138 -66 70 -42 84 -44 33 -3 -42 33 -60 89 -29 89 9 0 18 12 22 30 3 17
11 30 19 30 16 0 31 -23 18 -27 -23 -8 -38 -23 -31 -30 5 -4 12 -1 17 7 8 13
10 12 10 -2 0 -10 -6 -18 -13 -18 -14 0 -39 -35 -30 -44 24 -24 83 28 83 73 0
20 -8 36 -26 50 -43 34 -86 26 -109 -20 -16 -29 -12 -53 13 -81 8 -10 10 -18
5 -18 -6 0 -16 7 -23 14 -6 8 -31 23 -56 32 -49 18 -49 20 -32 76 20 68 103
122 193 127 12 1 41 -9 65 -21z m129 6 c19 12 12 -10 -9 -29 -11 -10 -20 -14
-20 -10 0 5 -7 0 -16 -11 -8 -10 -12 -13 -8 -5 3 7 0 17 -7 22 -10 6 -10 9 -2
9 7 0 10 7 7 15 -8 21 6 19 22 -2 12 -16 12 -15 8 7 -4 18 -3 21 4 11 5 -7 15
-10 21 -7z m-620 -179 l32 -16 -33 -22 c-18 -13 -42 -36 -53 -53 -21 -31 -21
-31 -44 -13 -28 23 -50 24 -79 3 -73 -51 -24 -158 58 -127 28 10 29 10 33 -21
3 -25 4 -22 6 14 1 25 6 54 10 65 7 17 9 15 20 -16 12 -36 58 -88 98 -108 12
-6 37 -11 56 -11 51 0 55 -24 11 -74 -76 -87 -86 -96 -110 -102 -15 -4 -36 1
-57 15 -41 25 -80 27 -98 5 -27 -33 74 -184 146 -218 59 -28 46 -46 -33 -46
l-68 0 -12 44 c-22 82 -96 141 -209 167 l-51 12 -7 58 c-11 97 28 161 110 179
17 4 29 11 28 16 -1 5 -10 29 -19 54 -14 37 -15 52 -5 88 15 53 63 109 105
122 42 13 127 5 165 -15z m209 -67 c7 -29 13 -60 14 -68 3 -23 -20 -82 -42
-109 -25 -29 -81 -38 -103 -17 -9 9 -20 16 -25 16 -14 0 -92 90 -92 105 0 7
21 33 48 59 37 36 54 46 82 47 19 0 44 4 55 9 42 18 51 12 63 -42z m826 -40
c14 -13 32 -41 39 -63 11 -33 20 -41 47 -46 18 -4 42 -17 54 -28 19 -20 21
-31 18 -114 -7 -172 -6 -192 15 -262 11 -38 23 -78 28 -87 7 -17 -8 -18 -226
-18 l-234 0 -2 53 c-1 29 -14 84 -28 122 -49 130 -66 190 -67 238 -2 59 16 79
69 81 37 1 38 1 45 50 4 28 15 58 27 69 18 18 24 19 59 9 32 -10 46 -9 73 3
46 19 54 19 83 -7z m-1139 -28 c0 -8 -8 -16 -17 -18 -13 -2 -18 3 -18 18 0 15
5 20 18 18 9 -2 17 -10 17 -18z m705 -199 c-1 -65 -39 -171 -77 -214 -18 -21
-37 -37 -43 -37 -5 0 -19 -9 -30 -20 -11 -11 -29 -20 -40 -20 -19 0 -19 0 0
33 11 18 22 57 26 87 5 47 3 58 -14 73 -46 41 -119 38 -162 -8 -17 -18 -34
-25 -60 -25 -47 0 -72 -27 -105 -109 -34 -88 -41 -96 -74 -75 -44 28 -82 67
-101 105 -11 20 -17 39 -14 41 2 3 24 -2 47 -10 39 -14 45 -14 81 3 22 11 58
44 87 80 46 59 50 62 89 59 21 -1 45 -6 51 -9 19 -12 138 -6 173 9 19 8 46 31
62 51 16 21 38 47 48 58 l19 20 19 -23 c12 -15 18 -38 18 -69z m-1014 -136 c2
-19 -1 -35 -6 -35 -6 0 -10 19 -10 42 0 49 11 44 16 -7z m798 25 c32 -12 32
-25 2 -109 -13 -37 -27 -89 -31 -117 -10 -64 -25 -93 -73 -136 -45 -40 -97
-61 -160 -62 -89 -2 -105 74 -39 182 19 32 37 73 41 92 3 19 15 50 26 68 15
25 26 32 51 32 27 0 31 -3 26 -22 -3 -13 -13 -58 -22 -101 -9 -42 -28 -93 -41
-113 -27 -40 -30 -54 -11 -54 37 0 69 69 96 205 27 139 54 166 135 135z m-674
-117 c93 -32 149 -102 150 -190 0 -44 -24 -73 -62 -73 -9 0 -29 -12 -43 -26
-22 -22 -32 -25 -68 -20 -54 7 -56 7 -92 1 -21 -4 -40 1 -65 16 -19 13 -50 23
-68 24 -51 3 -67 26 -66 94 3 166 129 236 314 174z"/>
<path d="M2146 1639 c-17 -24 -12 -45 14 -59 25 -14 49 -2 56 26 12 48 -41 73
-70 33z"/>
<path d="M2017 1633 c-4 -3 -7 -19 -7 -34 0 -22 6 -30 25 -35 43 -11 73 34 43
64 -13 13 -50 16 -61 5z"/>
<path d="M2084 1522 c-6 -4 -21 -26 -34 -49 -13 -24 -27 -43 -32 -43 -4 0 -8
-18 -8 -40 0 -51 20 -60 135 -60 63 0 88 4 99 16 30 30 19 57 -51 122 -66 60
-86 70 -109 54z m94 -72 c28 -28 52 -56 52 -64 0 -29 -28 -38 -97 -32 -90 7
-91 7 -96 27 -6 23 53 119 73 119 8 0 39 -23 68 -50z"/>
<path d="M2286 1517 c-38 -27 2 -95 42 -71 24 16 28 55 6 71 -10 7 -21 13 -24
13 -3 0 -14 -6 -24 -13z"/>
<path d="M1912 1508 c-30 -30 0 -75 42 -64 29 7 40 31 26 57 -12 21 -50 25
-68 7z"/>
<path d="M0 170 c0 -15 7 -20 24 -20 22 0 25 -4 24 -40 -1 -74 53 -117 110
-90 19 9 96 14 256 16 197 3 231 6 247 20 23 21 24 47 4 64 -8 7 -15 17 -15
22 0 6 399 9 1083 8 1386 -3 1267 -5 1267 20 0 20 -7 20 -1500 20 -1493 0
-1500 0 -1500 -20z m162 -37 c24 -22 24 -69 -1 -83 -31 -16 -59 -12 -75 12
-21 30 -20 44 4 68 24 24 47 25 72 3z m73 -15 c-4 -10 12 -13 62 -11 103 2
105 2 99 11 -3 5 1 9 9 9 15 0 19 -9 16 -37 -1 -11 1 -11 9 3 6 9 17 17 25 17
7 0 15 6 18 13 3 8 11 4 26 -12 11 -13 21 -18 21 -11 0 7 8 10 20 7 11 -3 20
-1 20 4 0 5 12 6 28 2 15 -3 35 -6 45 -5 13 1 17 -5 15 -20 -2 -18 -10 -22
-41 -23 -21 0 -41 3 -43 7 -3 4 -16 3 -30 -2 -21 -8 -26 -6 -34 13 -5 13 -9
16 -9 7 -1 -8 -13 -20 -27 -27 -28 -13 -44 -5 -57 27 -4 12 -6 11 -6 -2 -1
-11 -9 -18 -22 -18 -13 0 -18 4 -13 13 6 8 3 8 -9 -1 -9 -8 -22 -12 -29 -9 -7
2 -21 -3 -31 -11 -15 -14 -20 -14 -27 -2 -5 8 -23 13 -44 12 -30 -1 -36 2 -36
18 0 11 7 20 15 20 8 0 15 5 15 10 0 6 4 10 10 10 5 0 7 -6 5 -12z"/>
<path d="M100 90 c0 -28 3 -30 35 -30 27 0 35 4 35 18 0 25 -19 42 -47 42 -19
0 -23 -5 -23 -30z m55 0 c0 -8 -8 -16 -17 -18 -13 -2 -18 3 -18 18 0 15 5 20
18 18 9 -2 17 -10 17 -18z"/>
<path d="M2095 119 c-18 -7 -18 -8 5 -10 14 -1 40 -1 58 0 23 1 32 -3 32 -14
0 -17 -8 -19 -65 -15 -22 1 -43 7 -47 14 -6 8 -8 7 -8 -2 0 -23 45 -30 203
-30 169 1 195 7 183 46 -7 21 -11 22 -174 21 -92 -1 -176 -5 -187 -10z m152
-24 c0 -9 -10 -15 -24 -15 -14 0 -23 6 -23 15 0 9 9 15 23 15 14 0 24 -6 24
-15z m203 0 c0 -18 -31 -20 -49 -2 -11 10 -13 9 -7 -1 6 -9 -9 -12 -63 -11
-53 1 -71 5 -71 15 0 11 21 14 95 14 78 0 95 -3 95 -15z"/>
<path d="M2515 116 c-16 -12 -18 -18 -9 -33 10 -16 30 -18 212 -20 178 -2 202
0 215 15 11 12 13 22 7 32 -14 23 -396 28 -425 6z m87 -20 c5 -8 8 -7 8 1 0
15 150 15 169 0 10 -8 12 -8 8 -1 -4 7 17 11 68 10 54 0 75 -4 75 -13 0 -13
-89 -17 -270 -13 -41 1 -89 2 -107 2 -17 0 -34 6 -37 14 -6 16 75 16 86 0z"/>
</g>
</svg>
